<mxfile host="Electron" modified="2024-02-09T14:21:58.623Z" agent="Mozilla/5.0 (Windows NT 10.0; Win64; x64) AppleWebKit/537.36 (KHTML, like Gecko) draw.io/22.1.16 Chrome/120.0.6099.109 Electron/28.1.0 Safari/537.36" etag="HIfty8qqW62WYVwoQfLA" version="22.1.16" type="device">
  <diagram name="PÃ¡gina-1" id="O7MBfEGZBoNdr1yW5oVu">
    <mxGraphModel dx="2520" dy="2894" grid="1" gridSize="10" guides="1" tooltips="1" connect="1" arrows="1" fold="1" page="1" pageScale="1" pageWidth="827" pageHeight="1169" math="0" shadow="0">
      <root>
        <mxCell id="0" />
        <mxCell id="1" parent="0" />
        <mxCell id="AHUMnntUv6HniEayIjRY-2" value="z" style="group;strokeColor=#232136;fillColor=#232136;strokeWidth=25;" parent="1" vertex="1" connectable="0">
          <mxGeometry x="190" y="-140" width="787.89" height="640" as="geometry" />
        </mxCell>
        <mxCell id="yKTz0fdrUKhPqo3VoGnw-38" value="&lt;font style=&quot;font-size: 16px;&quot;&gt;Start&lt;/font&gt;" style="ellipse;whiteSpace=wrap;html=1;aspect=fixed;strokeColor=#DB918D;fontColor=#FFFFFF;fillColor=none;strokeWidth=3;fontSize=16;" parent="AHUMnntUv6HniEayIjRY-2" vertex="1">
          <mxGeometry x="62.975383387252634" y="286.89344827586206" width="55.17205159447082" height="55.17205159447082" as="geometry" />
        </mxCell>
        <mxCell id="yKTz0fdrUKhPqo3VoGnw-41" value="&lt;font style=&quot;font-size: 16px;&quot;&gt;Check next location&lt;/font&gt;" style="rounded=1;whiteSpace=wrap;html=1;strokeColor=#DB918D;fontColor=#FFFFFF;fillColor=none;strokeWidth=3;" parent="AHUMnntUv6HniEayIjRY-2" vertex="1">
          <mxGeometry x="303.48" y="84.97" width="152.07" height="33.1" as="geometry" />
        </mxCell>
        <mxCell id="yKTz0fdrUKhPqo3VoGnw-42" value="&lt;font style=&quot;font-size: 16px;&quot;&gt;Child Locations or &lt;br&gt;data requirements&lt;/font&gt;" style="rhombus;whiteSpace=wrap;html=1;rounded=0;strokeColor=#DB918D;strokeWidth=3;align=center;verticalAlign=middle;fontFamily=Helvetica;fontSize=11;fontColor=#FFFFFF;fillColor=none;spacingTop=-1;" parent="AHUMnntUv6HniEayIjRY-2" vertex="1">
          <mxGeometry x="509.84" y="57.38" width="192.01" height="88.28" as="geometry" />
        </mxCell>
        <mxCell id="yKTz0fdrUKhPqo3VoGnw-43" value="" style="edgeStyle=orthogonalEdgeStyle;shape=connector;curved=0;rounded=1;orthogonalLoop=1;jettySize=auto;html=1;labelBackgroundColor=default;strokeColor=#DB918D;strokeWidth=3;align=center;verticalAlign=middle;fontFamily=Helvetica;fontSize=12;fontColor=#FFFFFF;endArrow=openThin;endFill=0;fillColor=#FAE5C7;" parent="AHUMnntUv6HniEayIjRY-2" source="yKTz0fdrUKhPqo3VoGnw-41" target="yKTz0fdrUKhPqo3VoGnw-42" edge="1">
          <mxGeometry relative="1" as="geometry">
            <mxPoint x="641.1985492206212" y="101.51724137931035" as="targetPoint" />
          </mxGeometry>
        </mxCell>
        <mxCell id="yKTz0fdrUKhPqo3VoGnw-44" value="Data requirement" style="text;html=1;strokeColor=none;fillColor=none;align=left;verticalAlign=middle;whiteSpace=wrap;rounded=0;fontSize=14;fontFamily=Helvetica;fontColor=#FFFFFF;" parent="AHUMnntUv6HniEayIjRY-2" vertex="1">
          <mxGeometry x="610.2249594554852" y="144.19517241379307" width="66.27266837527836" height="33.103448275862064" as="geometry" />
        </mxCell>
        <mxCell id="yKTz0fdrUKhPqo3VoGnw-45" style="edgeStyle=orthogonalEdgeStyle;shape=connector;curved=0;rounded=1;orthogonalLoop=1;jettySize=auto;html=1;exitX=0.673;exitY=1.02;exitDx=0;exitDy=0;entryX=1;entryY=0.5;entryDx=0;entryDy=0;labelBackgroundColor=default;strokeColor=#DB918D;strokeWidth=3;align=center;verticalAlign=middle;fontFamily=Helvetica;fontSize=12;fontColor=#FFFFFF;endArrow=openThin;endFill=0;fillColor=#FAE5C7;exitPerimeter=0;" parent="AHUMnntUv6HniEayIjRY-2" source="yKTz0fdrUKhPqo3VoGnw-46" target="yKTz0fdrUKhPqo3VoGnw-42" edge="1">
          <mxGeometry relative="1" as="geometry">
            <Array as="points">
              <mxPoint x="740" y="44" />
              <mxPoint x="740" y="44" />
              <mxPoint x="740" y="101" />
            </Array>
          </mxGeometry>
        </mxCell>
        <mxCell id="yKTz0fdrUKhPqo3VoGnw-46" value="&lt;font style=&quot;font-size: 16px;&quot;&gt;Check next child location.&lt;/font&gt;" style="rounded=1;whiteSpace=wrap;html=1;strokeColor=#DB918D;fontColor=#FFFFFF;fillColor=none;strokeWidth=3;" parent="AHUMnntUv6HniEayIjRY-2" vertex="1">
          <mxGeometry x="640" width="147.89" height="44.14" as="geometry" />
        </mxCell>
        <mxCell id="yKTz0fdrUKhPqo3VoGnw-47" style="edgeStyle=orthogonalEdgeStyle;shape=connector;curved=0;rounded=1;orthogonalLoop=1;jettySize=auto;html=1;labelBackgroundColor=default;strokeColor=#DB918D;strokeWidth=3;align=center;verticalAlign=middle;fontFamily=Helvetica;fontSize=12;fontColor=#FFFFFF;endArrow=openThin;endFill=0;fillColor=#FAE5C7;exitX=0.5;exitY=0;exitDx=0;exitDy=0;" parent="AHUMnntUv6HniEayIjRY-2" source="yKTz0fdrUKhPqo3VoGnw-42" target="yKTz0fdrUKhPqo3VoGnw-46" edge="1">
          <mxGeometry relative="1" as="geometry">
            <Array as="points">
              <mxPoint x="605.8222297382463" y="22.068965517241377" />
            </Array>
          </mxGeometry>
        </mxCell>
        <mxCell id="yKTz0fdrUKhPqo3VoGnw-48" value="Data requirements &lt;br style=&quot;font-size: 16px;&quot;&gt;left to check?" style="rhombus;whiteSpace=wrap;html=1;rounded=0;strokeColor=#DB918D;strokeWidth=3;align=center;verticalAlign=middle;fontFamily=Helvetica;fontSize=16;fontColor=#FFFFFF;fillColor=none;spacingTop=4;" parent="AHUMnntUv6HniEayIjRY-2" vertex="1">
          <mxGeometry x="550" y="199.37" width="174.81" height="102.42" as="geometry" />
        </mxCell>
        <mxCell id="yKTz0fdrUKhPqo3VoGnw-49" value="" style="edgeStyle=orthogonalEdgeStyle;shape=connector;curved=0;rounded=1;orthogonalLoop=1;jettySize=auto;html=1;labelBackgroundColor=default;strokeColor=#DB918D;strokeWidth=3;align=center;verticalAlign=middle;fontFamily=Helvetica;fontSize=12;fontColor=#FFFFFF;endArrow=openThin;endFill=0;fillColor=#FAE5C7;" parent="AHUMnntUv6HniEayIjRY-2" source="yKTz0fdrUKhPqo3VoGnw-42" target="yKTz0fdrUKhPqo3VoGnw-48" edge="1">
          <mxGeometry relative="1" as="geometry">
            <mxPoint x="605.7670576866519" y="178.75862068965515" as="targetPoint" />
            <Array as="points">
              <mxPoint x="606" y="180" />
              <mxPoint x="637" y="180" />
            </Array>
          </mxGeometry>
        </mxCell>
        <mxCell id="yKTz0fdrUKhPqo3VoGnw-50" value="&lt;font style=&quot;font-size: 14px;&quot;&gt;Child&lt;br style=&quot;font-size: 14px;&quot;&gt;locations&lt;/font&gt;" style="text;html=1;strokeColor=none;fillColor=none;align=right;verticalAlign=middle;whiteSpace=wrap;rounded=0;fontSize=14;fontFamily=Helvetica;fontColor=#FFFFFF;" parent="AHUMnntUv6HniEayIjRY-2" vertex="1">
          <mxGeometry x="503.75458047981175" y="29.792758620689654" width="95.28213310365112" height="27.586206896551722" as="geometry" />
        </mxCell>
        <mxCell id="24-RcjtqaWTgur0IXHR3-10" style="edgeStyle=orthogonalEdgeStyle;shape=connector;curved=0;rounded=1;orthogonalLoop=1;jettySize=auto;html=1;labelBackgroundColor=default;strokeColor=#DB918D;strokeWidth=3;align=center;verticalAlign=middle;fontFamily=Helvetica;fontSize=12;fontColor=#FFFFFF;endArrow=openThin;endFill=0;fillColor=#FAE5C7;exitX=1;exitY=0.5;exitDx=0;exitDy=0;" parent="AHUMnntUv6HniEayIjRY-2" source="yKTz0fdrUKhPqo3VoGnw-56" target="yKTz0fdrUKhPqo3VoGnw-41" edge="1">
          <mxGeometry relative="1" as="geometry">
            <Array as="points">
              <mxPoint x="374" y="142" />
            </Array>
          </mxGeometry>
        </mxCell>
        <mxCell id="yKTz0fdrUKhPqo3VoGnw-56" value="&lt;font style=&quot;font-size: 16px;&quot;&gt;Locations&lt;br&gt;left to check?&lt;/font&gt;" style="rhombus;whiteSpace=wrap;html=1;rounded=0;strokeColor=#DB918D;strokeWidth=3;align=center;verticalAlign=middle;fontFamily=Helvetica;fontSize=11;fontColor=#FFFFFF;fillColor=none;spacingTop=-3;" parent="AHUMnntUv6HniEayIjRY-2" vertex="1">
          <mxGeometry x="116.21" y="102.72000000000001" width="135.34" height="78.97" as="geometry" />
        </mxCell>
        <mxCell id="24-RcjtqaWTgur0IXHR3-12" style="edgeStyle=orthogonalEdgeStyle;shape=connector;curved=0;rounded=1;orthogonalLoop=1;jettySize=auto;html=1;exitX=0;exitY=0.5;exitDx=0;exitDy=0;entryX=0.5;entryY=1;entryDx=0;entryDy=0;labelBackgroundColor=default;strokeColor=#DB918D;strokeWidth=3;align=center;verticalAlign=middle;fontFamily=Helvetica;fontSize=12;fontColor=#FFFFFF;endArrow=openThin;endFill=0;fillColor=#FAE5C7;" parent="AHUMnntUv6HniEayIjRY-2" source="yKTz0fdrUKhPqo3VoGnw-48" target="yKTz0fdrUKhPqo3VoGnw-56" edge="1">
          <mxGeometry relative="1" as="geometry">
            <Array as="points">
              <mxPoint x="530" y="251" />
              <mxPoint x="501" y="250" />
              <mxPoint x="501" y="210" />
              <mxPoint x="184" y="210" />
            </Array>
          </mxGeometry>
        </mxCell>
        <mxCell id="yKTz0fdrUKhPqo3VoGnw-59" value="&lt;font style=&quot;font-size: 14px;&quot;&gt;No&lt;/font&gt;" style="text;html=1;strokeColor=none;fillColor=none;align=center;verticalAlign=middle;whiteSpace=wrap;rounded=0;fontSize=12;fontFamily=Helvetica;fontColor=#FFFFFF;" parent="AHUMnntUv6HniEayIjRY-2" vertex="1">
          <mxGeometry x="194.63596361497417" y="84.96758620689654" width="25.930864249401285" height="20.413793103448274" as="geometry" />
        </mxCell>
        <mxCell id="yKTz0fdrUKhPqo3VoGnw-60" value="&lt;font style=&quot;font-size: 14px;&quot;&gt;Yes&lt;/font&gt;" style="text;html=1;strokeColor=none;fillColor=none;align=center;verticalAlign=middle;whiteSpace=wrap;rounded=0;fontSize=12;fontFamily=Helvetica;fontColor=#FFFFFF;" parent="AHUMnntUv6HniEayIjRY-2" vertex="1">
          <mxGeometry x="251.5494840552917" y="145.66275862068966" width="39.999737405991354" height="22.068965517241377" as="geometry" />
        </mxCell>
        <mxCell id="yKTz0fdrUKhPqo3VoGnw-63" value="Data Requirement Status?" style="rhombus;whiteSpace=wrap;html=1;rounded=0;strokeColor=#DB918D;strokeWidth=3;align=center;verticalAlign=middle;fontFamily=Helvetica;fontSize=16;fontColor=#FFFFFF;fillColor=none;spacingTop=7;" parent="AHUMnntUv6HniEayIjRY-2" vertex="1">
          <mxGeometry x="303.47999999999996" y="220.06" width="177.55" height="81.73" as="geometry" />
        </mxCell>
        <mxCell id="3HJj5yRui7-hpwzC4WDt-18" style="edgeStyle=orthogonalEdgeStyle;shape=connector;curved=0;rounded=1;orthogonalLoop=1;jettySize=auto;html=1;labelBackgroundColor=default;strokeColor=#DB918D;strokeWidth=3;align=center;verticalAlign=middle;fontFamily=Helvetica;fontSize=12;fontColor=#FFFFFF;endArrow=openThin;endFill=0;fillColor=#FAE5C7;exitX=0;exitY=0.5;exitDx=0;exitDy=0;" parent="AHUMnntUv6HniEayIjRY-2" source="yKTz0fdrUKhPqo3VoGnw-48" target="yKTz0fdrUKhPqo3VoGnw-63" edge="1">
          <mxGeometry relative="1" as="geometry">
            <mxPoint x="508.9401071383556" y="273.65517241379314" as="targetPoint" />
            <Array as="points">
              <mxPoint x="535" y="251" />
              <mxPoint x="520" y="250" />
              <mxPoint x="520" y="280" />
            </Array>
          </mxGeometry>
        </mxCell>
        <mxCell id="3HJj5yRui7-hpwzC4WDt-23" style="edgeStyle=orthogonalEdgeStyle;shape=connector;curved=0;rounded=1;orthogonalLoop=1;jettySize=auto;html=1;labelBackgroundColor=default;strokeColor=#DB918D;strokeWidth=3;align=center;verticalAlign=middle;fontFamily=Helvetica;fontSize=12;fontColor=#FFFFFF;endArrow=openThin;endFill=0;fillColor=#FAE5C7;" parent="AHUMnntUv6HniEayIjRY-2" source="yKTz0fdrUKhPqo3VoGnw-65" target="yKTz0fdrUKhPqo3VoGnw-48" edge="1">
          <mxGeometry relative="1" as="geometry" />
        </mxCell>
        <mxCell id="yKTz0fdrUKhPqo3VoGnw-65" value="Nothing to do" style="whiteSpace=wrap;html=1;fontSize=16;fillColor=none;strokeColor=#DB918D;fontColor=#FFFFFF;rounded=1;strokeWidth=3;spacingTop=0;" parent="AHUMnntUv6HniEayIjRY-2" vertex="1">
          <mxGeometry x="326.0444056972396" y="328.0044827586207" width="132.41292382672998" height="28.413793103448274" as="geometry" />
        </mxCell>
        <mxCell id="3HJj5yRui7-hpwzC4WDt-22" style="edgeStyle=orthogonalEdgeStyle;shape=connector;curved=0;rounded=1;orthogonalLoop=1;jettySize=auto;html=1;exitX=0.5;exitY=1;exitDx=0;exitDy=0;entryX=0.5;entryY=0;entryDx=0;entryDy=0;labelBackgroundColor=default;strokeColor=#DB918D;strokeWidth=3;align=center;verticalAlign=middle;fontFamily=Helvetica;fontSize=12;fontColor=#FFFFFF;endArrow=openThin;endFill=0;fillColor=#FAE5C7;" parent="AHUMnntUv6HniEayIjRY-2" source="yKTz0fdrUKhPqo3VoGnw-63" target="yKTz0fdrUKhPqo3VoGnw-65" edge="1">
          <mxGeometry relative="1" as="geometry" />
        </mxCell>
        <mxCell id="yKTz0fdrUKhPqo3VoGnw-68" value="&lt;font style=&quot;font-size: 14px;&quot;&gt;Coherent&lt;/font&gt;" style="text;html=1;strokeColor=none;fillColor=none;align=center;verticalAlign=middle;whiteSpace=wrap;rounded=0;fontSize=12;fontFamily=Helvetica;fontColor=#FFFFFF;" parent="AHUMnntUv6HniEayIjRY-2" vertex="1">
          <mxGeometry x="409.9952611234823" y="305.9337931034483" width="39.999737405991354" height="22.068965517241377" as="geometry" />
        </mxCell>
        <mxCell id="yKTz0fdrUKhPqo3VoGnw-69" value="Count components with coherent state" style="whiteSpace=wrap;html=1;fontSize=16;fillColor=none;strokeColor=#DB918D;fontColor=#FFFFFF;rounded=1;strokeWidth=3;spacingTop=0;" parent="AHUMnntUv6HniEayIjRY-2" vertex="1">
          <mxGeometry x="147.88" y="290.20000000000005" width="163.48" height="40.28" as="geometry" />
        </mxCell>
        <mxCell id="yKTz0fdrUKhPqo3VoGnw-104" style="edgeStyle=orthogonalEdgeStyle;shape=connector;curved=0;rounded=1;orthogonalLoop=1;jettySize=auto;html=1;labelBackgroundColor=default;strokeColor=#DB918D;strokeWidth=3;align=center;verticalAlign=middle;fontFamily=Helvetica;fontSize=12;fontColor=#FFFFFF;endArrow=openThin;endFill=0;fillColor=#FAE5C7;" parent="AHUMnntUv6HniEayIjRY-2" source="yKTz0fdrUKhPqo3VoGnw-63" target="yKTz0fdrUKhPqo3VoGnw-69" edge="1">
          <mxGeometry relative="1" as="geometry">
            <Array as="points">
              <mxPoint x="237" y="268" />
            </Array>
          </mxGeometry>
        </mxCell>
        <mxCell id="yKTz0fdrUKhPqo3VoGnw-72" value="Not coherent" style="text;html=1;strokeColor=none;fillColor=none;align=center;verticalAlign=middle;whiteSpace=wrap;rounded=0;fontSize=14;fontFamily=Helvetica;fontColor=#FFFFFF;" parent="AHUMnntUv6HniEayIjRY-2" vertex="1">
          <mxGeometry x="211.07" y="242.48" width="96.89" height="22.07" as="geometry" />
        </mxCell>
        <mxCell id="yKTz0fdrUKhPqo3VoGnw-83" value="What was last &lt;br style=&quot;font-size: 16px;&quot;&gt;attemped for&lt;br style=&quot;font-size: 16px;&quot;&gt;&amp;nbsp;component?" style="rhombus;whiteSpace=wrap;html=1;rounded=0;strokeColor=#DB918D;strokeWidth=3;align=center;verticalAlign=middle;fontFamily=Helvetica;fontSize=16;fontColor=#FFFFFF;fillColor=none;spacingTop=4;" parent="AHUMnntUv6HniEayIjRY-2" vertex="1">
          <mxGeometry x="174.52" y="450" width="170" height="97.86" as="geometry" />
        </mxCell>
        <mxCell id="3HJj5yRui7-hpwzC4WDt-29" style="edgeStyle=orthogonalEdgeStyle;shape=connector;curved=0;rounded=1;orthogonalLoop=1;jettySize=auto;html=1;labelBackgroundColor=default;strokeColor=#DB918D;strokeWidth=3;align=center;verticalAlign=middle;fontFamily=Helvetica;fontSize=12;fontColor=#FFFFFF;endArrow=openThin;endFill=0;fillColor=#FAE5C7;exitX=1;exitY=0.5;exitDx=0;exitDy=0;" parent="AHUMnntUv6HniEayIjRY-2" source="yKTz0fdrUKhPqo3VoGnw-88" target="yKTz0fdrUKhPqo3VoGnw-48" edge="1">
          <mxGeometry relative="1" as="geometry">
            <Array as="points">
              <mxPoint x="760" y="426" />
              <mxPoint x="760" y="370" />
              <mxPoint x="637" y="370" />
            </Array>
            <mxPoint x="605.8222297382463" y="419.31034482758616" as="sourcePoint" />
          </mxGeometry>
        </mxCell>
        <mxCell id="yKTz0fdrUKhPqo3VoGnw-88" value="&lt;font style=&quot;font-size: 16px;&quot;&gt;Add addition action to vector containing location and data requirement info&lt;/font&gt;" style="rounded=1;whiteSpace=wrap;html=1;strokeColor=#DB918D;strokeWidth=3;align=center;verticalAlign=middle;fontFamily=Helvetica;fontSize=16;fontColor=#FFFFFF;fillColor=none;spacingTop=0;" parent="AHUMnntUv6HniEayIjRY-2" vertex="1">
          <mxGeometry x="430" y="384.34000000000003" width="300" height="55.66" as="geometry" />
        </mxCell>
        <mxCell id="3HJj5yRui7-hpwzC4WDt-27" style="edgeStyle=orthogonalEdgeStyle;shape=connector;curved=0;rounded=1;orthogonalLoop=1;jettySize=auto;html=1;exitX=0.5;exitY=0;exitDx=0;exitDy=0;labelBackgroundColor=default;strokeColor=#DB918D;strokeWidth=3;align=center;verticalAlign=middle;fontFamily=Helvetica;fontSize=12;fontColor=#FFFFFF;endArrow=openThin;endFill=0;fillColor=#FAE5C7;" parent="AHUMnntUv6HniEayIjRY-2" source="yKTz0fdrUKhPqo3VoGnw-83" target="yKTz0fdrUKhPqo3VoGnw-88" edge="1">
          <mxGeometry relative="1" as="geometry">
            <Array as="points">
              <mxPoint x="260" y="430" />
            </Array>
          </mxGeometry>
        </mxCell>
        <mxCell id="yKTz0fdrUKhPqo3VoGnw-94" value="Add reconfiguration action to vector containing location, data requirement and component info" style="whiteSpace=wrap;html=1;fontSize=16;fillColor=none;strokeColor=#DB918D;fontColor=#FFFFFF;rounded=1;strokeWidth=3;spacingTop=0;" parent="AHUMnntUv6HniEayIjRY-2" vertex="1">
          <mxGeometry x="426.91" y="450" width="306.18" height="70" as="geometry" />
        </mxCell>
        <mxCell id="3HJj5yRui7-hpwzC4WDt-33" style="edgeStyle=orthogonalEdgeStyle;shape=connector;curved=0;rounded=1;orthogonalLoop=1;jettySize=auto;html=1;labelBackgroundColor=default;strokeColor=#DB918D;strokeWidth=3;align=center;verticalAlign=middle;fontFamily=Helvetica;fontSize=12;fontColor=#FFFFFF;endArrow=openThin;endFill=0;fillColor=#FAE5C7;exitX=1;exitY=0.5;exitDx=0;exitDy=0;" parent="AHUMnntUv6HniEayIjRY-2" source="yKTz0fdrUKhPqo3VoGnw-83" target="yKTz0fdrUKhPqo3VoGnw-94" edge="1">
          <mxGeometry relative="1" as="geometry">
            <Array as="points">
              <mxPoint x="411" y="499" />
              <mxPoint x="411" y="499" />
            </Array>
          </mxGeometry>
        </mxCell>
        <mxCell id="yKTz0fdrUKhPqo3VoGnw-92" value="Add restart action to vector containing location, data requirement and component info" style="whiteSpace=wrap;html=1;fontSize=16;fillColor=none;strokeColor=#DB918D;fontColor=#FFFFFF;rounded=1;strokeWidth=3;spacingTop=0;" parent="AHUMnntUv6HniEayIjRY-2" vertex="1">
          <mxGeometry x="426.91" y="530" width="300" height="67.17" as="geometry" />
        </mxCell>
        <mxCell id="3HJj5yRui7-hpwzC4WDt-34" style="edgeStyle=orthogonalEdgeStyle;shape=connector;curved=0;rounded=1;orthogonalLoop=1;jettySize=auto;html=1;labelBackgroundColor=default;strokeColor=#DB918D;strokeWidth=3;align=center;verticalAlign=middle;fontFamily=Helvetica;fontSize=12;fontColor=#FFFFFF;endArrow=openThin;endFill=0;fillColor=#FAE5C7;exitX=0.5;exitY=1;exitDx=0;exitDy=0;" parent="AHUMnntUv6HniEayIjRY-2" source="yKTz0fdrUKhPqo3VoGnw-83" target="yKTz0fdrUKhPqo3VoGnw-92" edge="1">
          <mxGeometry relative="1" as="geometry">
            <Array as="points">
              <mxPoint x="261" y="548" />
              <mxPoint x="261" y="577" />
            </Array>
          </mxGeometry>
        </mxCell>
        <mxCell id="3HJj5yRui7-hpwzC4WDt-25" style="edgeStyle=orthogonalEdgeStyle;shape=connector;curved=0;rounded=1;orthogonalLoop=1;jettySize=auto;html=1;labelBackgroundColor=default;strokeColor=#DB918D;strokeWidth=3;align=center;verticalAlign=middle;fontFamily=Helvetica;fontSize=12;fontColor=#FFFFFF;endArrow=openThin;endFill=0;fillColor=#FAE5C7;" parent="AHUMnntUv6HniEayIjRY-2" source="yKTz0fdrUKhPqo3VoGnw-77" target="yKTz0fdrUKhPqo3VoGnw-88" edge="1">
          <mxGeometry relative="1" as="geometry">
            <Array as="points">
              <mxPoint x="500.99533170875173" y="398.3448275862069" />
            </Array>
          </mxGeometry>
        </mxCell>
        <mxCell id="yKTz0fdrUKhPqo3VoGnw-77" value="count &amp;lt; required?" style="rhombus;whiteSpace=wrap;html=1;rounded=0;strokeColor=#DB918D;strokeWidth=3;align=center;verticalAlign=middle;fontFamily=Helvetica;fontSize=16;fontColor=#FFFFFF;fillColor=none;spacingTop=-1;" parent="AHUMnntUv6HniEayIjRY-2" vertex="1">
          <mxGeometry x="174.52" y="356.42" width="147.93" height="65.1" as="geometry" />
        </mxCell>
        <mxCell id="yKTz0fdrUKhPqo3VoGnw-78" style="edgeStyle=orthogonalEdgeStyle;shape=connector;curved=0;rounded=1;orthogonalLoop=1;jettySize=auto;html=1;labelBackgroundColor=default;strokeColor=#DB918D;strokeWidth=3;align=center;verticalAlign=middle;fontFamily=Helvetica;fontSize=12;fontColor=#FFFFFF;endArrow=openThin;endFill=0;fillColor=#FAE5C7;" parent="AHUMnntUv6HniEayIjRY-2" source="yKTz0fdrUKhPqo3VoGnw-69" target="yKTz0fdrUKhPqo3VoGnw-77" edge="1">
          <mxGeometry relative="1" as="geometry">
            <Array as="points">
              <mxPoint x="230" y="340" />
              <mxPoint x="248" y="340" />
            </Array>
          </mxGeometry>
        </mxCell>
        <mxCell id="3HJj5yRui7-hpwzC4WDt-35" value="Yes" style="text;html=1;strokeColor=none;fillColor=none;align=center;verticalAlign=middle;whiteSpace=wrap;rounded=0;fontSize=14;fontFamily=Helvetica;fontColor=#FFFFFF;" parent="AHUMnntUv6HniEayIjRY-2" vertex="1">
          <mxGeometry x="322.45185874543085" y="362.27413793103443" width="39.999737405991354" height="22.068965517241377" as="geometry" />
        </mxCell>
        <mxCell id="3HJj5yRui7-hpwzC4WDt-37" value="Reconfig" style="text;html=1;strokeColor=none;fillColor=none;align=center;verticalAlign=middle;whiteSpace=wrap;rounded=0;fontSize=14;fontFamily=Helvetica;fontColor=#FFFFFF;" parent="AHUMnntUv6HniEayIjRY-2" vertex="1">
          <mxGeometry x="329.99753833872524" y="409.9972413793103" width="39.999737405991354" height="22.068965517241377" as="geometry" />
        </mxCell>
        <mxCell id="3HJj5yRui7-hpwzC4WDt-38" value="Restart" style="text;html=1;strokeColor=none;fillColor=none;align=center;verticalAlign=middle;whiteSpace=wrap;rounded=0;fontSize=14;fontFamily=Helvetica;fontColor=#FFFFFF;" parent="AHUMnntUv6HniEayIjRY-2" vertex="1">
          <mxGeometry x="348.49" y="475.55" width="37.55" height="18.9" as="geometry" />
        </mxCell>
        <mxCell id="3HJj5yRui7-hpwzC4WDt-39" value="None or Addition" style="text;html=1;strokeColor=none;fillColor=none;align=center;verticalAlign=middle;whiteSpace=wrap;rounded=0;fontSize=14;fontFamily=Helvetica;fontColor=#FFFFFF;" parent="AHUMnntUv6HniEayIjRY-2" vertex="1">
          <mxGeometry x="271.0048636611907" y="547.8596551724138" width="115.03372757447167" height="22.068965517241377" as="geometry" />
        </mxCell>
        <mxCell id="3HJj5yRui7-hpwzC4WDt-41" value="&lt;font style=&quot;font-size: 16px;&quot;&gt;End&lt;/font&gt;" style="ellipse;whiteSpace=wrap;html=1;aspect=fixed;strokeColor=#DB918D;fontColor=#FFFFFF;fillColor=none;strokeWidth=3;" parent="AHUMnntUv6HniEayIjRY-2" vertex="1">
          <mxGeometry x="15.9963551951599" y="21.34206896551724" width="55.17205159447082" height="55.17205159447082" as="geometry" />
        </mxCell>
        <mxCell id="24-RcjtqaWTgur0IXHR3-15" style="edgeStyle=orthogonalEdgeStyle;shape=connector;curved=0;rounded=1;orthogonalLoop=1;jettySize=auto;html=1;labelBackgroundColor=default;strokeColor=#DB918D;strokeWidth=3;align=center;verticalAlign=middle;fontFamily=Helvetica;fontSize=12;fontColor=#FFFFFF;endArrow=openThin;endFill=0;fillColor=#FAE5C7;" parent="AHUMnntUv6HniEayIjRY-2" source="3HJj5yRui7-hpwzC4WDt-44" target="3HJj5yRui7-hpwzC4WDt-41" edge="1">
          <mxGeometry relative="1" as="geometry" />
        </mxCell>
        <mxCell id="3HJj5yRui7-hpwzC4WDt-44" value="&lt;font style=&quot;font-size: 16px;&quot;&gt;Return vector containing actions&lt;/font&gt;" style="rounded=1;whiteSpace=wrap;html=1;strokeColor=#DB918D;fontColor=#FFFFFF;fillColor=none;strokeWidth=3;" parent="AHUMnntUv6HniEayIjRY-2" vertex="1">
          <mxGeometry x="114.45337506827441" y="26.85931034482758" width="138.84598504264525" height="44.137931034482754" as="geometry" />
        </mxCell>
        <mxCell id="24-RcjtqaWTgur0IXHR3-14" style="edgeStyle=orthogonalEdgeStyle;shape=connector;curved=0;rounded=1;orthogonalLoop=1;jettySize=auto;html=1;exitX=0.5;exitY=0;exitDx=0;exitDy=0;entryX=0.5;entryY=1;entryDx=0;entryDy=0;labelBackgroundColor=default;strokeColor=#DB918D;strokeWidth=3;align=center;verticalAlign=middle;fontFamily=Helvetica;fontSize=12;fontColor=#FFFFFF;endArrow=openThin;endFill=0;fillColor=#FAE5C7;" parent="AHUMnntUv6HniEayIjRY-2" source="yKTz0fdrUKhPqo3VoGnw-56" target="3HJj5yRui7-hpwzC4WDt-44" edge="1">
          <mxGeometry relative="1" as="geometry" />
        </mxCell>
        <mxCell id="3HJj5yRui7-hpwzC4WDt-50" value="No" style="text;html=1;strokeColor=none;fillColor=none;align=center;verticalAlign=middle;whiteSpace=wrap;rounded=0;fontSize=14;fontFamily=Helvetica;fontColor=#FFFFFF;" parent="AHUMnntUv6HniEayIjRY-2" vertex="1">
          <mxGeometry x="470.00072223856154" y="190" width="25.930864249401285" height="20.413793103448274" as="geometry" />
        </mxCell>
        <mxCell id="3HJj5yRui7-hpwzC4WDt-51" value="Yes" style="text;html=1;strokeColor=none;fillColor=none;align=center;verticalAlign=middle;whiteSpace=wrap;rounded=0;fontSize=14;fontFamily=Helvetica;fontColor=#FFFFFF;" parent="AHUMnntUv6HniEayIjRY-2" vertex="1">
          <mxGeometry x="490.004196882484" y="264.5441379310345" width="39.999737405991354" height="22.068965517241377" as="geometry" />
        </mxCell>
        <mxCell id="24-RcjtqaWTgur0IXHR3-11" style="edgeStyle=orthogonalEdgeStyle;shape=connector;curved=0;rounded=1;orthogonalLoop=1;jettySize=auto;html=1;entryX=0;entryY=0.5;entryDx=0;entryDy=0;labelBackgroundColor=default;strokeColor=#DB918D;strokeWidth=3;align=center;verticalAlign=middle;fontFamily=Helvetica;fontSize=12;fontColor=#FFFFFF;endArrow=openThin;endFill=0;fillColor=#FAE5C7;" parent="AHUMnntUv6HniEayIjRY-2" source="weasKUzhQbfyZyFGf2sW-3" target="yKTz0fdrUKhPqo3VoGnw-56" edge="1">
          <mxGeometry relative="1" as="geometry" />
        </mxCell>
        <mxCell id="weasKUzhQbfyZyFGf2sW-3" value="&lt;font style=&quot;font-size: 16px;&quot;&gt;Get root location from application&lt;/font&gt;" style="rounded=1;whiteSpace=wrap;html=1;strokeColor=#DB918D;fontColor=#FFFFFF;fillColor=none;strokeWidth=3;" parent="AHUMnntUv6HniEayIjRY-2" vertex="1">
          <mxGeometry x="19.996355195159836" y="220.40965517241378" width="141.13010797865635" height="44.137931034482754" as="geometry" />
        </mxCell>
        <mxCell id="3HJj5yRui7-hpwzC4WDt-42" style="edgeStyle=orthogonalEdgeStyle;shape=connector;curved=0;rounded=1;orthogonalLoop=1;jettySize=auto;html=1;labelBackgroundColor=default;strokeColor=#DB918D;strokeWidth=3;align=center;verticalAlign=middle;fontFamily=Helvetica;fontSize=12;fontColor=#FFFFFF;endArrow=openThin;endFill=0;fillColor=#FAE5C7;" parent="AHUMnntUv6HniEayIjRY-2" source="yKTz0fdrUKhPqo3VoGnw-38" target="weasKUzhQbfyZyFGf2sW-3" edge="1">
          <mxGeometry relative="1" as="geometry">
            <mxPoint x="-53.473100462189365" y="142.95960591132987" as="targetPoint" />
          </mxGeometry>
        </mxCell>
        <mxCell id="24-RcjtqaWTgur0IXHR3-3" value="Get components with non-coherent state" style="whiteSpace=wrap;html=1;fontSize=16;fillColor=none;strokeColor=#DB918D;fontColor=#FFFFFF;rounded=1;strokeWidth=3;spacingTop=0;" parent="AHUMnntUv6HniEayIjRY-2" vertex="1">
          <mxGeometry x="4.45" y="360" width="135.55" height="57.94" as="geometry" />
        </mxCell>
        <mxCell id="24-RcjtqaWTgur0IXHR3-4" style="edgeStyle=orthogonalEdgeStyle;shape=connector;curved=0;rounded=1;orthogonalLoop=1;jettySize=auto;html=1;labelBackgroundColor=default;strokeColor=#DB918D;strokeWidth=3;align=center;verticalAlign=middle;fontFamily=Helvetica;fontSize=12;fontColor=#FFFFFF;endArrow=openThin;endFill=0;fillColor=#FAE5C7;" parent="AHUMnntUv6HniEayIjRY-2" source="yKTz0fdrUKhPqo3VoGnw-77" target="24-RcjtqaWTgur0IXHR3-3" edge="1">
          <mxGeometry relative="1" as="geometry">
            <Array as="points">
              <mxPoint x="170" y="389" />
              <mxPoint x="170" y="389" />
            </Array>
          </mxGeometry>
        </mxCell>
        <mxCell id="24-RcjtqaWTgur0IXHR3-5" value="No" style="text;html=1;strokeColor=none;fillColor=none;align=center;verticalAlign=middle;whiteSpace=wrap;rounded=0;fontSize=14;fontFamily=Helvetica;fontColor=#FFFFFF;" parent="AHUMnntUv6HniEayIjRY-2" vertex="1">
          <mxGeometry x="147.88076047224905" y="360.0006896551724" width="39.999737405991354" height="22.068965517241377" as="geometry" />
        </mxCell>
        <mxCell id="24-RcjtqaWTgur0IXHR3-8" style="edgeStyle=orthogonalEdgeStyle;shape=connector;curved=0;rounded=1;orthogonalLoop=1;jettySize=auto;html=1;labelBackgroundColor=default;strokeColor=#DB918D;strokeWidth=3;align=center;verticalAlign=middle;fontFamily=Helvetica;fontSize=12;fontColor=#FFFFFF;endArrow=openThin;endFill=0;fillColor=#FAE5C7;" parent="AHUMnntUv6HniEayIjRY-2" source="24-RcjtqaWTgur0IXHR3-6" target="yKTz0fdrUKhPqo3VoGnw-48" edge="1">
          <mxGeometry relative="1" as="geometry">
            <Array as="points">
              <mxPoint x="77" y="640" />
              <mxPoint x="770" y="640" />
              <mxPoint x="770" y="353" />
              <mxPoint x="637" y="353" />
            </Array>
            <mxPoint x="640" y="290" as="targetPoint" />
          </mxGeometry>
        </mxCell>
        <mxCell id="24-RcjtqaWTgur0IXHR3-16" style="edgeStyle=orthogonalEdgeStyle;shape=connector;curved=0;rounded=1;orthogonalLoop=1;jettySize=auto;html=1;labelBackgroundColor=default;strokeColor=#DB918D;strokeWidth=3;align=center;verticalAlign=middle;fontFamily=Helvetica;fontSize=12;fontColor=#FFFFFF;endArrow=openThin;endFill=0;fillColor=#FAE5C7;entryX=0;entryY=0.5;entryDx=0;entryDy=0;" parent="AHUMnntUv6HniEayIjRY-2" source="24-RcjtqaWTgur0IXHR3-6" target="yKTz0fdrUKhPqo3VoGnw-83" edge="1">
          <mxGeometry relative="1" as="geometry" />
        </mxCell>
        <mxCell id="24-RcjtqaWTgur0IXHR3-6" value="Components &lt;br&gt;left to check?" style="rhombus;whiteSpace=wrap;html=1;rounded=0;strokeColor=#DB918D;strokeWidth=3;align=center;verticalAlign=middle;fontFamily=Helvetica;fontSize=16;fontColor=#FFFFFF;fillColor=none;spacingTop=6;" parent="AHUMnntUv6HniEayIjRY-2" vertex="1">
          <mxGeometry x="6.57" y="450" width="141.31" height="96.28" as="geometry" />
        </mxCell>
        <mxCell id="24-RcjtqaWTgur0IXHR3-17" style="edgeStyle=orthogonalEdgeStyle;shape=connector;curved=0;rounded=1;orthogonalLoop=1;jettySize=auto;html=1;exitX=1.001;exitY=0.414;exitDx=0;exitDy=0;labelBackgroundColor=default;strokeColor=#DB918D;strokeWidth=3;align=center;verticalAlign=middle;fontFamily=Helvetica;fontSize=12;fontColor=#FFFFFF;endArrow=openThin;endFill=0;fillColor=#FAE5C7;exitPerimeter=0;" parent="AHUMnntUv6HniEayIjRY-2" source="yKTz0fdrUKhPqo3VoGnw-94" target="24-RcjtqaWTgur0IXHR3-6" edge="1">
          <mxGeometry relative="1" as="geometry">
            <Array as="points">
              <mxPoint x="750" y="479" />
              <mxPoint x="750" y="620" />
              <mxPoint x="110" y="620" />
            </Array>
          </mxGeometry>
        </mxCell>
        <mxCell id="24-RcjtqaWTgur0IXHR3-18" style="edgeStyle=orthogonalEdgeStyle;shape=connector;curved=0;rounded=1;orthogonalLoop=1;jettySize=auto;html=1;labelBackgroundColor=default;strokeColor=#DB918D;strokeWidth=3;align=center;verticalAlign=middle;fontFamily=Helvetica;fontSize=12;fontColor=#FFFFFF;endArrow=openThin;endFill=0;fillColor=#FAE5C7;" parent="AHUMnntUv6HniEayIjRY-2" source="yKTz0fdrUKhPqo3VoGnw-92" target="24-RcjtqaWTgur0IXHR3-6" edge="1">
          <mxGeometry relative="1" as="geometry">
            <Array as="points">
              <mxPoint x="580" y="620" />
              <mxPoint x="110" y="620" />
            </Array>
          </mxGeometry>
        </mxCell>
        <mxCell id="24-RcjtqaWTgur0IXHR3-7" style="edgeStyle=orthogonalEdgeStyle;shape=connector;curved=0;rounded=1;orthogonalLoop=1;jettySize=auto;html=1;labelBackgroundColor=default;strokeColor=#DB918D;strokeWidth=3;align=center;verticalAlign=middle;fontFamily=Helvetica;fontSize=12;fontColor=#FFFFFF;endArrow=openThin;endFill=0;fillColor=#FAE5C7;" parent="AHUMnntUv6HniEayIjRY-2" source="24-RcjtqaWTgur0IXHR3-3" target="24-RcjtqaWTgur0IXHR3-6" edge="1">
          <mxGeometry relative="1" as="geometry" />
        </mxCell>
      </root>
    </mxGraphModel>
  </diagram>
</mxfile>
